<svg width="48" height="29" viewBox="0 0 48 29" fill="none" xmlns="http://www.w3.org/2000/svg">
<rect x="0.725" y="0.725" width="46.4" height="27.55" stroke="#2BFF08" stroke-width="1.45"/>
<path d="M4.3187 18.5V11.1182H5.21259V17.707H8.64398V18.5H4.3187ZM12.1619 18.6153C11.6621 18.6153 11.2235 18.4964 10.8463 18.2585C10.4714 18.0206 10.1783 17.6878 9.9668 17.2601C9.75774 16.8324 9.65321 16.3326 9.65321 15.7607C9.65321 15.1839 9.75774 14.6805 9.9668 14.2504C10.1783 13.8203 10.4714 13.4863 10.8463 13.2484C11.2235 13.0105 11.6621 12.8915 12.1619 12.8915C12.6617 12.8915 13.099 13.0105 13.4739 13.2484C13.8511 13.4863 14.1443 13.8203 14.3534 14.2504C14.5648 14.6805 14.6705 15.1839 14.6705 15.7607C14.6705 16.3326 14.5648 16.8324 14.3534 17.2601C14.1443 17.6878 13.8511 18.0206 13.4739 18.2585C13.099 18.4964 12.6617 18.6153 12.1619 18.6153ZM12.1619 17.8512C12.5415 17.8512 12.8539 17.7539 13.099 17.5593C13.3441 17.3646 13.5255 17.1087 13.6433 16.7915C13.761 16.4743 13.8199 16.1307 13.8199 15.7607C13.8199 15.3906 13.761 15.0458 13.6433 14.7262C13.5255 14.4066 13.3441 14.1483 13.099 13.9512C12.8539 13.7542 12.5415 13.6557 12.1619 13.6557C11.7822 13.6557 11.4698 13.7542 11.2247 13.9512C10.9796 14.1483 10.7982 14.4066 10.6805 14.7262C10.5627 15.0458 10.5039 15.3906 10.5039 15.7607C10.5039 16.1307 10.5627 16.4743 10.6805 16.7915C10.7982 17.1087 10.9796 17.3646 11.2247 17.5593C11.4698 17.7539 11.7822 17.8512 12.1619 17.8512ZM18.2038 20.6915C17.7929 20.6915 17.4396 20.6386 17.1441 20.5329C16.8485 20.4296 16.6022 20.2926 16.4052 20.122C16.2105 19.9538 16.0555 19.7736 15.9402 19.5813L16.6178 19.1055C16.6947 19.2065 16.792 19.3218 16.9098 19.4516C17.0275 19.5837 17.1885 19.6979 17.3928 19.794C17.5994 19.8925 17.8698 19.9418 18.2038 19.9418C18.6507 19.9418 19.0196 19.8336 19.3103 19.6174C19.6011 19.4011 19.7464 19.0623 19.7464 18.6009V17.4763H19.6744C19.6119 17.5773 19.523 17.7022 19.4076 17.8512C19.2947 17.9978 19.1313 18.1287 18.9174 18.2441C18.706 18.357 18.42 18.4135 18.0596 18.4135C17.6126 18.4135 17.2113 18.3078 16.8557 18.0963C16.5025 17.8848 16.2225 17.5773 16.0159 17.1736C15.8116 16.7699 15.7095 16.2797 15.7095 15.703C15.7095 15.1359 15.8092 14.6421 16.0087 14.2216C16.2081 13.7987 16.4857 13.4719 16.8413 13.2412C17.1969 13.0081 17.6078 12.8915 18.074 12.8915C18.4344 12.8915 18.7204 12.9516 18.9319 13.0718C19.1457 13.1895 19.3091 13.3241 19.422 13.4755C19.5374 13.6244 19.6263 13.747 19.6888 13.8431H19.7753V12.9636H20.5971V18.6586C20.5971 19.1344 20.489 19.5212 20.2727 19.8192C20.0588 20.1196 19.7705 20.3394 19.4076 20.4788C19.0472 20.6206 18.6459 20.6915 18.2038 20.6915ZM18.1749 17.6494C18.5161 17.6494 18.8045 17.5713 19.04 17.4151C19.2755 17.2589 19.4545 17.0342 19.577 16.7411C19.6996 16.4479 19.7609 16.0971 19.7609 15.6886C19.7609 15.2897 19.7008 14.9376 19.5806 14.6325C19.4605 14.3273 19.2827 14.0882 19.0472 13.9152C18.8117 13.7422 18.5209 13.6557 18.1749 13.6557C17.8145 13.6557 17.5141 13.747 17.2738 13.9296C17.0359 14.1122 16.8569 14.3573 16.7368 14.6649C16.619 14.9725 16.5602 15.3137 16.5602 15.6886C16.5602 16.073 16.6202 16.4131 16.7404 16.7086C16.8629 17.0018 17.0431 17.2325 17.281 17.4007C17.5213 17.5665 17.8193 17.6494 18.1749 17.6494ZM34.2073 14.8091C34.2073 15.5876 34.0667 16.2605 33.7856 16.8276C33.5045 17.3946 33.1188 17.832 32.6286 18.1396C32.1384 18.4471 31.5785 18.6009 30.9489 18.6009C30.3194 18.6009 29.7595 18.4471 29.2693 18.1396C28.7791 17.832 28.3934 17.3946 28.1123 16.8276C27.8311 16.2605 27.6906 15.5876 27.6906 14.8091C27.6906 14.0305 27.8311 13.3577 28.1123 12.7906C28.3934 12.2235 28.7791 11.7862 29.2693 11.4786C29.7595 11.171 30.3194 11.0173 30.9489 11.0173C31.5785 11.0173 32.1384 11.171 32.6286 11.4786C33.1188 11.7862 33.5045 12.2235 33.7856 12.7906C34.0667 13.3577 34.2073 14.0305 34.2073 14.8091ZM33.3423 14.8091C33.3423 14.1699 33.2353 13.6305 33.0215 13.1907C32.81 12.751 32.5229 12.4182 32.16 12.1923C31.7996 11.9664 31.3959 11.8535 30.9489 11.8535C30.502 11.8535 30.0971 11.9664 29.7342 12.1923C29.3738 12.4182 29.0867 12.751 28.8728 13.1907C28.6613 13.6305 28.5556 14.1699 28.5556 14.8091C28.5556 15.4483 28.6613 15.9877 28.8728 16.4275C29.0867 16.8672 29.3738 17.2 29.7342 17.4259C30.0971 17.6518 30.502 17.7647 30.9489 17.7647C31.3959 17.7647 31.7996 17.6518 32.16 17.4259C32.5229 17.2 32.81 16.8672 33.0215 16.4275C33.2353 15.9877 33.3423 15.4483 33.3423 14.8091ZM39.0841 16.2364V12.9636H39.9347V18.5H39.0841V17.5629H39.0264C38.8966 17.844 38.6948 18.0831 38.4209 18.2801C38.1469 18.4748 37.8009 18.5721 37.3828 18.5721C37.0368 18.5721 36.7292 18.4964 36.4601 18.345C36.1909 18.1912 35.9795 17.9605 35.8257 17.653C35.6719 17.343 35.595 16.9525 35.595 16.4815V12.9636H36.4456V16.4239C36.4456 16.8276 36.5586 17.1496 36.7845 17.3898C37.0127 17.6301 37.3035 17.7503 37.6567 17.7503C37.8682 17.7503 38.0832 17.6962 38.3019 17.5881C38.523 17.48 38.708 17.3142 38.857 17.0907C39.0084 16.8672 39.0841 16.5825 39.0841 16.2364ZM43.9005 12.9636V13.6845H41.0314V12.9636H43.9005ZM41.8676 11.6372H42.7182V16.9141C42.7182 17.1544 42.7531 17.3346 42.8227 17.4547C42.8948 17.5725 42.9861 17.6518 43.0967 17.6926C43.2096 17.7311 43.3286 17.7503 43.4535 17.7503C43.5472 17.7503 43.6241 17.7455 43.6842 17.7359C43.7443 17.7239 43.7923 17.7142 43.8284 17.707L44.0014 18.4712C43.9437 18.4928 43.8632 18.5144 43.7599 18.536C43.6566 18.5601 43.5256 18.5721 43.367 18.5721C43.1267 18.5721 42.8912 18.5204 42.6605 18.4171C42.4323 18.3138 42.2424 18.1564 42.091 17.9449C41.9421 17.7335 41.8676 17.4667 41.8676 17.1447V11.6372Z" fill="#2BFF08"/>
</svg>
