<svg width="41" height="30" viewBox="0 0 41 30" fill="none" xmlns="http://www.w3.org/2000/svg">
<rect x="1.40906" y="0.734259" width="38.1815" height="27.9018" stroke="#2BFF08" stroke-width="1.46852"/>
<path d="M4.90531 18.6853V11.2092H5.81062V17.8822H9.28583V18.6853H4.90531ZM12.8487 18.8021C12.3425 18.8021 11.8983 18.6817 11.5163 18.4407C11.1366 18.1998 10.8397 17.8627 10.6255 17.4296C10.4138 16.9964 10.308 16.4902 10.308 15.911C10.308 15.3269 10.4138 14.8171 10.6255 14.3814C10.8397 13.9458 11.1366 13.6075 11.5163 13.3666C11.8983 13.1257 12.3425 13.0052 12.8487 13.0052C13.3549 13.0052 13.7978 13.1257 14.1774 13.3666C14.5595 13.6075 14.8564 13.9458 15.0681 14.3814C15.2823 14.8171 15.3894 15.3269 15.3894 15.911C15.3894 16.4902 15.2823 16.9964 15.0681 17.4296C14.8564 17.8627 14.5595 18.1998 14.1774 18.4407C13.7978 18.6817 13.3549 18.8021 12.8487 18.8021ZM12.8487 18.0282C13.2332 18.0282 13.5495 17.9297 13.7978 17.7325C14.046 17.5354 14.2297 17.2762 14.349 16.955C14.4682 16.6338 14.5279 16.2857 14.5279 15.911C14.5279 15.5362 14.4682 15.187 14.349 14.8633C14.2297 14.5396 14.046 14.278 13.7978 14.0785C13.5495 13.8789 13.2332 13.7791 12.8487 13.7791C12.4641 13.7791 12.1478 13.8789 11.8995 14.0785C11.6513 14.278 11.4676 14.5396 11.3483 14.8633C11.2291 15.187 11.1695 15.5362 11.1695 15.911C11.1695 16.2857 11.2291 16.6338 11.3483 16.955C11.4676 17.2762 11.6513 17.5354 11.8995 17.7325C12.1478 17.9297 12.4641 18.0282 12.8487 18.0282ZM18.9677 20.9048C18.5516 20.9048 18.1938 20.8512 17.8945 20.7441C17.5951 20.6395 17.3457 20.5008 17.1461 20.328C16.949 20.1576 16.792 19.9751 16.6752 19.7804L17.3615 19.2986C17.4394 19.4008 17.538 19.5176 17.6572 19.649C17.7764 19.7829 17.9395 19.8985 18.1464 19.9958C18.3556 20.0956 18.6294 20.1455 18.9677 20.1455C19.4204 20.1455 19.7939 20.036 20.0884 19.8169C20.3829 19.5979 20.5301 19.2548 20.5301 18.7875V17.6486H20.4571C20.3938 17.7508 20.3038 17.8773 20.187 18.0282C20.0726 18.1767 19.9071 18.3093 19.6905 18.4261C19.4763 18.5405 19.1867 18.5977 18.8217 18.5977C18.369 18.5977 17.9626 18.4906 17.6024 18.2765C17.2447 18.0623 16.9612 17.7508 16.7519 17.3419C16.545 16.9331 16.4416 16.4366 16.4416 15.8526C16.4416 15.2782 16.5426 14.7781 16.7446 14.3522C16.9466 13.9239 17.2277 13.5929 17.5878 13.3593C17.948 13.1233 18.3642 13.0052 18.8363 13.0052C19.2013 13.0052 19.4909 13.0661 19.7051 13.1877C19.9217 13.307 20.0872 13.4433 20.2016 13.5966C20.3184 13.7475 20.4084 13.8716 20.4717 13.9689H20.5593V13.0782H21.3916V18.8459C21.3916 19.3278 21.2821 19.7196 21.0631 20.0214C20.8465 20.3256 20.5544 20.5482 20.187 20.6894C19.8219 20.833 19.4155 20.9048 18.9677 20.9048ZM18.9385 17.8238C19.2841 17.8238 19.5761 17.7447 19.8146 17.5865C20.0531 17.4283 20.2344 17.2008 20.3585 16.9039C20.4826 16.607 20.5447 16.2517 20.5447 15.838C20.5447 15.434 20.4839 15.0775 20.3622 14.7684C20.2405 14.4593 20.0604 14.2172 19.8219 14.0419C19.5834 13.8667 19.2889 13.7791 18.9385 13.7791C18.5735 13.7791 18.2693 13.8716 18.0259 14.0565C17.785 14.2415 17.6037 14.4897 17.482 14.8012C17.3627 15.1127 17.3031 15.4583 17.3031 15.838C17.3031 16.2273 17.3639 16.5717 17.4856 16.871C17.6097 17.1679 17.7923 17.4016 18.0332 17.5719C18.2766 17.7398 18.5783 17.8238 18.9385 17.8238ZM29.773 11.2092V18.6853H28.8677V11.2092H29.773ZM32.3329 15.3123V18.6853H31.4714V13.0782H32.3037V13.9543H32.3767C32.5081 13.6696 32.7076 13.4408 32.9753 13.2681C33.243 13.0928 33.5886 13.0052 34.0121 13.0052C34.3917 13.0052 34.7239 13.0831 35.0086 13.2389C35.2934 13.3922 35.5148 13.6258 35.673 13.9397C35.8312 14.2512 35.9103 14.6455 35.9103 15.1225V18.6853H35.0488V15.1809C35.0488 14.7404 34.9344 14.3973 34.7057 14.1515C34.4769 13.9032 34.163 13.7791 33.7638 13.7791C33.4888 13.7791 33.243 13.8387 33.0265 13.958C32.8123 14.0772 32.6432 14.2512 32.519 14.48C32.3949 14.7088 32.3329 14.9862 32.3329 15.3123Z" fill="#2BFF08"/>
</svg>
