<svg width="59" height="43" viewBox="0 0 59 43" fill="none" xmlns="http://www.w3.org/2000/svg">
<g filter="url(#filter0_d_239_297)">
<rect x="6.35606" y="0.356061" width="46.2879" height="29.9091" stroke="black" stroke-width="0.712121"/>
<circle cx="29.4997" cy="7.34884" r="2.31103" stroke="black" stroke-width="1.42424"/>
<path d="M25.0119 13.758C25.0119 13.1713 25.3709 12.5078 26.2114 11.9605C27.0509 11.4139 28.2326 11.0842 29.4996 11.0842C30.7667 11.0842 31.9483 11.4139 32.7879 11.9605C33.6284 12.5078 33.9873 13.1713 33.9873 13.758" stroke="black" stroke-width="1.42424"/>
<path d="M14.378 24.2954V17.0447H15.256V23.5165H18.6265V24.2954H14.378ZM22.0819 24.4087C21.5909 24.4087 21.1602 24.2919 20.7896 24.0582C20.4214 23.8245 20.1335 23.4976 19.9258 23.0775C19.7204 22.6574 19.6178 22.1665 19.6178 21.6047C19.6178 21.0383 19.7204 20.5438 19.9258 20.1213C20.1335 19.6988 20.4214 19.3707 20.7896 19.1371C21.1602 18.9034 21.5909 18.7866 22.0819 18.7866C22.5728 18.7866 23.0024 18.9034 23.3706 19.1371C23.7411 19.3707 24.0291 19.6988 24.2344 20.1213C24.4421 20.5438 24.546 21.0383 24.546 21.6047C24.546 22.1665 24.4421 22.6574 24.2344 23.0775C24.0291 23.4976 23.7411 23.8245 23.3706 24.0582C23.0024 24.2919 22.5728 24.4087 22.0819 24.4087ZM22.0819 23.6581C22.4548 23.6581 22.7616 23.5626 23.0024 23.3714C23.2431 23.1802 23.4213 22.9288 23.537 22.6173C23.6526 22.3057 23.7104 21.9682 23.7104 21.6047C23.7104 21.2412 23.6526 20.9025 23.537 20.5886C23.4213 20.2747 23.2431 20.021 23.0024 19.8275C22.7616 19.6339 22.4548 19.5371 22.0819 19.5371C21.709 19.5371 21.4021 19.6339 21.1614 19.8275C20.9206 20.021 20.7424 20.2747 20.6268 20.5886C20.5111 20.9025 20.4533 21.2412 20.4533 21.6047C20.4533 21.9682 20.5111 22.3057 20.6268 22.6173C20.7424 22.9288 20.9206 23.1802 21.1614 23.3714C21.4021 23.5626 21.709 23.6581 22.0819 23.6581ZM28.0164 26.448C27.6128 26.448 27.2659 26.396 26.9756 26.2922C26.6852 26.1907 26.4433 26.0562 26.2498 25.8886C26.0586 25.7234 25.9064 25.5463 25.7931 25.3575L26.4587 24.8902C26.5342 24.9893 26.6298 25.1026 26.7454 25.2301C26.8611 25.3599 27.0192 25.472 27.2198 25.5664C27.4228 25.6632 27.6884 25.7116 28.0164 25.7116C28.4554 25.7116 28.8177 25.6053 29.1033 25.3929C29.3889 25.1805 29.5317 24.8477 29.5317 24.3945V23.2899H29.4609C29.3995 23.3891 29.3122 23.5118 29.1989 23.6581C29.088 23.8021 28.9275 23.9308 28.7174 24.044C28.5097 24.155 28.2288 24.2104 27.8748 24.2104C27.4358 24.2104 27.0416 24.1066 26.6923 23.8989C26.3454 23.6912 26.0704 23.3891 25.8674 22.9926C25.6668 22.596 25.5665 22.1145 25.5665 21.5481C25.5665 20.9911 25.6644 20.506 25.8603 20.093C26.0562 19.6776 26.3288 19.3566 26.6782 19.13C27.0275 18.9011 27.4311 18.7866 27.889 18.7866C28.243 18.7866 28.5239 18.8456 28.7316 18.9636C28.9416 19.0793 29.1021 19.2114 29.2131 19.3601C29.3264 19.5065 29.4137 19.6268 29.4751 19.7212H29.56V18.8574H30.3672V24.4512C30.3672 24.9185 30.261 25.2985 30.0486 25.5912C29.8385 25.8862 29.5553 26.1022 29.1989 26.2391C28.8449 26.3783 28.4507 26.448 28.0164 26.448ZM27.9881 23.4599C28.3233 23.4599 28.6065 23.3832 28.8378 23.2298C29.0691 23.0763 29.2449 22.8557 29.3653 22.5677C29.4857 22.2798 29.5459 21.9352 29.5459 21.5339C29.5459 21.1421 29.4869 20.7963 29.3688 20.4966C29.2508 20.1968 29.0762 19.962 28.8449 19.7921C28.6136 19.6221 28.328 19.5371 27.9881 19.5371C27.6341 19.5371 27.339 19.6268 27.103 19.8062C26.8693 19.9856 26.6935 20.2263 26.5755 20.5285C26.4598 20.8306 26.402 21.1657 26.402 21.5339C26.402 21.9116 26.461 22.2455 26.579 22.5358C26.6994 22.8238 26.8764 23.0504 27.1101 23.2156C27.3461 23.3785 27.6388 23.4599 27.9881 23.4599ZM38.4959 17.0447V24.2954H37.6179V17.0447H38.4959ZM40.9786 21.0241V24.2954H40.1431V18.8574H40.9503V19.7071H41.0211C41.1486 19.4309 41.3421 19.2091 41.6017 19.0415C41.8614 18.8716 42.1965 18.7866 42.6072 18.7866C42.9754 18.7866 43.2976 18.8621 43.5737 19.0132C43.8499 19.1619 44.0647 19.3884 44.2181 19.6929C44.3715 19.995 44.4482 20.3774 44.4482 20.84V24.2954H43.6127V20.8966C43.6127 20.4694 43.5017 20.1366 43.2799 19.8983C43.058 19.6575 42.7535 19.5371 42.3665 19.5371C42.0997 19.5371 41.8614 19.595 41.6513 19.7106C41.4436 19.8263 41.2796 19.995 41.1592 20.2169C41.0388 20.4388 40.9786 20.7078 40.9786 21.0241Z" fill="#080808"/>
</g>
<defs>
<filter id="filter0_d_239_297" x="0.30303" y="0" width="58.3939" height="42.015" filterUnits="userSpaceOnUse" color-interpolation-filters="sRGB">
<feFlood flood-opacity="0" result="BackgroundImageFix"/>
<feColorMatrix in="SourceAlpha" type="matrix" values="0 0 0 0 0 0 0 0 0 0 0 0 0 0 0 0 0 0 127 0" result="hardAlpha"/>
<feOffset dy="5.69697"/>
<feGaussianBlur stdDeviation="2.84848"/>
<feComposite in2="hardAlpha" operator="out"/>
<feColorMatrix type="matrix" values="0 0 0 0 0 0 0 0 0 0 0 0 0 0 0 0 0 0 0.25 0"/>
<feBlend mode="normal" in2="BackgroundImageFix" result="effect1_dropShadow_239_297"/>
<feBlend mode="normal" in="SourceGraphic" in2="effect1_dropShadow_239_297" result="shape"/>
</filter>
</defs>
</svg>
