<svg width="58" height="42" viewBox="0 0 58 42" fill="none" xmlns="http://www.w3.org/2000/svg">
<g filter="url(#filter0_d_239_326)">
<rect x="6.34884" y="0.348837" width="45.3488" height="29.3023" stroke="black" stroke-width="0.697674"/>
<circle cx="29.0233" cy="7.07803" r="2.26415" stroke="black" stroke-width="1.39535"/>
<path d="M24.6264 13.357C24.6264 12.7822 24.9781 12.1322 25.8015 11.596C26.624 11.0604 27.7817 10.7375 29.023 10.7375C30.2644 10.7375 31.4221 11.0604 32.2446 11.596C33.068 12.1322 33.4197 12.7822 33.4197 13.357" stroke="black" stroke-width="1.39535"/>
<path d="M9.88364 23.8838V16.7802H10.7438V23.1207H14.0459V23.8838H9.88364ZM17.4312 23.9948C16.9502 23.9948 16.5282 23.8803 16.1652 23.6514C15.8045 23.4225 15.5223 23.1022 15.3189 22.6906C15.1177 22.279 15.0171 21.798 15.0171 21.2477C15.0171 20.6927 15.1177 20.2083 15.3189 19.7944C15.5223 19.3805 15.8045 19.059 16.1652 18.8301C16.5282 18.6012 16.9502 18.4867 17.4312 18.4867C17.9122 18.4867 18.333 18.6012 18.6938 18.8301C19.0568 19.059 19.3389 19.3805 19.5401 19.7944C19.7436 20.2083 19.8453 20.6927 19.8453 21.2477C19.8453 21.798 19.7436 22.279 19.5401 22.6906C19.3389 23.1022 19.0568 23.4225 18.6938 23.6514C18.333 23.8803 17.9122 23.9948 17.4312 23.9948ZM17.4312 23.2594C17.7966 23.2594 18.0972 23.1658 18.333 22.9785C18.5689 22.7912 18.7435 22.5449 18.8568 22.2397C18.9701 21.9345 19.0267 21.6038 19.0267 21.2477C19.0267 20.8916 18.9701 20.5598 18.8568 20.2522C18.7435 19.9447 18.5689 19.6961 18.333 19.5065C18.0972 19.3169 17.7966 19.2221 17.4312 19.2221C17.0659 19.2221 16.7652 19.3169 16.5294 19.5065C16.2935 19.6961 16.1189 19.9447 16.0056 20.2522C15.8923 20.5598 15.8357 20.8916 15.8357 21.2477C15.8357 21.6038 15.8923 21.9345 16.0056 22.2397C16.1189 22.5449 16.2935 22.7912 16.5294 22.9785C16.7652 23.1658 17.0659 23.2594 17.4312 23.2594ZM23.2454 25.9927C22.85 25.9927 22.51 25.9418 22.2256 25.8401C21.9412 25.7406 21.7042 25.6088 21.5146 25.4446C21.3273 25.2828 21.1781 25.1093 21.0671 24.9244L21.7192 24.4665C21.7932 24.5636 21.8869 24.6746 22.0002 24.7995C22.1135 24.9267 22.2684 25.0365 22.4649 25.129C22.6638 25.2238 22.9239 25.2712 23.2454 25.2712C23.6755 25.2712 24.0304 25.1672 24.3102 24.959C24.59 24.7509 24.7299 24.4249 24.7299 23.9809V22.8987H24.6605C24.6004 22.9958 24.5149 23.1161 24.4039 23.2594C24.2952 23.4005 24.1379 23.5265 23.9321 23.6375C23.7287 23.7462 23.4535 23.8005 23.1066 23.8005C22.6765 23.8005 22.2904 23.6988 21.9481 23.4953C21.6082 23.2918 21.3388 22.9958 21.14 22.6074C20.9434 22.2189 20.8451 21.7472 20.8451 21.1922C20.8451 20.6465 20.9411 20.1713 21.133 19.7666C21.3249 19.3596 21.592 19.0452 21.9343 18.8232C22.2765 18.5989 22.6719 18.4867 23.1205 18.4867C23.4674 18.4867 23.7425 18.5445 23.946 18.6602C24.1518 18.7735 24.3091 18.9029 24.4177 19.0486C24.5287 19.192 24.6143 19.3099 24.6744 19.4024H24.7577V18.5561H25.5485V24.0364C25.5485 24.4943 25.4444 24.8665 25.2363 25.1533C25.0305 25.4423 24.753 25.6539 24.4039 25.788C24.057 25.9245 23.6708 25.9927 23.2454 25.9927ZM23.2176 23.0652C23.546 23.0652 23.8235 22.9901 24.0501 22.8398C24.2767 22.6895 24.449 22.4732 24.5669 22.1911C24.6848 21.909 24.7438 21.5714 24.7438 21.1783C24.7438 20.7945 24.686 20.4557 24.5704 20.162C24.4547 19.8684 24.2836 19.6383 24.057 19.4718C23.8304 19.3053 23.5506 19.2221 23.2176 19.2221C22.8708 19.2221 22.5817 19.3099 22.3505 19.4857C22.1216 19.6614 21.9493 19.8973 21.8337 20.1933C21.7204 20.4892 21.6637 20.8176 21.6637 21.1783C21.6637 21.5483 21.7215 21.8755 21.8371 22.1599C21.9551 22.442 22.1285 22.664 22.3574 22.8259C22.5887 22.9854 22.8754 23.0652 23.2176 23.0652ZM38.6457 20.332C38.6457 21.0812 38.5105 21.7287 38.2399 22.2744C37.9694 22.8201 37.5982 23.241 37.1265 23.5369C36.6548 23.8329 36.116 23.9809 35.5102 23.9809C34.9043 23.9809 34.3655 23.8329 33.8938 23.5369C33.4221 23.241 33.051 22.8201 32.7804 22.2744C32.5099 21.7287 32.3746 21.0812 32.3746 20.332C32.3746 19.5828 32.5099 18.9353 32.7804 18.3896C33.051 17.8439 33.4221 17.423 33.8938 17.1271C34.3655 16.8311 34.9043 16.6831 35.5102 16.6831C36.116 16.6831 36.6548 16.8311 37.1265 17.1271C37.5982 17.423 37.9694 17.8439 38.2399 18.3896C38.5105 18.9353 38.6457 19.5828 38.6457 20.332ZM37.8133 20.332C37.8133 19.7169 37.7104 19.1978 37.5046 18.7746C37.3011 18.3514 37.0248 18.0312 36.6756 17.8138C36.3287 17.5965 35.9403 17.4878 35.5102 17.4878C35.0801 17.4878 34.6904 17.5965 34.3413 17.8138C33.9944 18.0312 33.7181 18.3514 33.5123 18.7746C33.3088 19.1978 33.207 19.7169 33.207 20.332C33.207 20.9471 33.3088 21.4662 33.5123 21.8894C33.7181 22.3125 33.9944 22.6328 34.3413 22.8502C34.6904 23.0675 35.0801 23.1762 35.5102 23.1762C35.9403 23.1762 36.3287 23.0675 36.6756 22.8502C37.0248 22.6328 37.3011 22.3125 37.5046 21.8894C37.7104 21.4662 37.8133 20.9471 37.8133 20.332ZM43.3387 21.7055V18.5561H44.1573V23.8838H43.3387V22.982H43.2832C43.1583 23.2525 42.9641 23.4826 42.7005 23.6722C42.4369 23.8595 42.1039 23.9532 41.7015 23.9532C41.3686 23.9532 41.0726 23.8803 40.8136 23.7346C40.5546 23.5866 40.3511 23.3647 40.2031 23.0687C40.0551 22.7704 39.9811 22.3946 39.9811 21.9414V18.5561H40.7997V21.8859C40.7997 22.2744 40.9084 22.5842 41.1258 22.8155C41.3454 23.0467 41.6252 23.1623 41.9651 23.1623C42.1686 23.1623 42.3756 23.1103 42.586 23.0062C42.7987 22.9022 42.9768 22.7426 43.1202 22.5276C43.2658 22.3125 43.3387 22.0385 43.3387 21.7055ZM47.9735 18.5561V19.2498H45.2126V18.5561H47.9735ZM46.0173 17.2797H46.8359V22.3576C46.8359 22.5889 46.8694 22.7623 46.9364 22.8779C47.0058 22.9912 47.0937 23.0675 47.2001 23.1068C47.3087 23.1438 47.4232 23.1623 47.5434 23.1623C47.6336 23.1623 47.7076 23.1577 47.7654 23.1485C47.8232 23.1369 47.8695 23.1276 47.9042 23.1207L48.0707 23.856C48.0152 23.8769 47.9377 23.8977 47.8383 23.9185C47.7388 23.9416 47.6128 23.9532 47.4602 23.9532C47.229 23.9532 47.0023 23.9034 46.7804 23.804C46.5607 23.7046 46.378 23.5531 46.2323 23.3496C46.089 23.1461 46.0173 22.8895 46.0173 22.5796V17.2797Z" fill="#080808"/>
</g>
<defs>
<filter id="filter0_d_239_326" x="0.418605" y="0" width="57.2097" height="41.1628" filterUnits="userSpaceOnUse" color-interpolation-filters="sRGB">
<feFlood flood-opacity="0" result="BackgroundImageFix"/>
<feColorMatrix in="SourceAlpha" type="matrix" values="0 0 0 0 0 0 0 0 0 0 0 0 0 0 0 0 0 0 127 0" result="hardAlpha"/>
<feOffset dy="5.5814"/>
<feGaussianBlur stdDeviation="2.7907"/>
<feComposite in2="hardAlpha" operator="out"/>
<feColorMatrix type="matrix" values="0 0 0 0 0 0 0 0 0 0 0 0 0 0 0 0 0 0 0.25 0"/>
<feBlend mode="normal" in2="BackgroundImageFix" result="effect1_dropShadow_239_326"/>
<feBlend mode="normal" in="SourceGraphic" in2="effect1_dropShadow_239_326" result="shape"/>
</filter>
</defs>
</svg>
